<svg width="185" height="91" viewBox="0 0 185 91" fill="none" xmlns="http://www.w3.org/2000/svg">
<path fill-rule="evenodd" clip-rule="evenodd" d="M39.8257 6.1663C38.2017 9.54325 35.5799 14.9991 33.9998 18.2898C26.8137 33.2568 6.31891 75.087 1.83273 83.9432L0 87.562L1.41978 88.3517C2.20044 88.7863 2.83957 89.5653 2.83957 90.083C2.83957 90.8816 4.26711 91.0057 12.21 90.8986C17.3638 90.8287 23.2477 90.7594 25.2853 90.7443L28.9902 90.716L30.7021 87.424C33.2244 82.5727 39.6531 66.6031 43.5739 55.4476C47.4358 44.4596 54.2096 30.0046 55.7703 29.4214C56.337 29.2092 57.2024 29.1859 57.6935 29.3698C58.1853 29.5536 60.8626 34.4333 63.6447 40.2141C78.9696 72.0634 86.422 87.0134 87.9096 88.8933L89.5763 91L109.216 90.8098C128.172 90.6265 129.025 90.5648 133.703 89.0464C139.98 87.0077 141.877 85.82 146.314 81.1494C149.184 78.1289 151.026 75.1721 154.835 67.4735C157.507 62.0717 161.592 53.8259 163.91 49.1496C166.228 44.4734 168.998 38.8053 170.064 36.5538C171.937 32.5968 175.58 25.1262 182.325 11.4081C185.214 5.53273 185.444 4.76186 184.509 4.09554C183.933 3.68618 183.463 2.59664 183.463 1.67525V0L170.071 0.170676L156.678 0.340718L153.069 8.21313C151.085 12.543 146.747 22.1788 143.431 29.6261C140.115 37.0734 136.846 43.6484 136.167 44.2373C133.703 46.3735 134.585 48.0091 120.735 15.6132L114.071 0.0258217H100.664H87.2569L89.7346 5.22161C91.0969 8.07898 98.2029 22.7254 105.525 37.768C120.273 68.0648 120.563 68.9277 116.739 71.1993C114.321 72.6359 108.715 72.9048 107.031 71.6647C106.159 71.0236 98.517 56.2014 92.9858 44.4262C92.3351 43.0407 88.1171 34.3968 83.6115 25.2175C79.1066 16.0383 74.5028 6.61912 73.3809 4.28637L71.3407 0.0447147L57.0595 0.0352682L42.7783 0.0258217L39.8257 6.1663ZM53.7359 60.3001C49.9626 61.0093 45.8951 68.3357 47.0661 72.3141C48.6972 77.8556 53.3915 81.8856 58.8057 82.3926C63.8935 82.8687 68.4624 79.1448 68.5555 74.4459C68.6136 71.5073 65.8949 64.5443 63.9975 62.7727C61.3861 60.3348 57.9526 59.5072 53.7359 60.3001Z" fill="white"/>
</svg>
